<mxfile host="app.diagrams.net" modified="2022-03-19T13:34:16.376Z" agent="5.0 (Windows)" etag="24dKxdOGExSqJU6NtvuW" version="15.4.1" type="github">
  <diagram id="x2OnH4yaNspLiFPI2viS" name="Page-1">
    <mxGraphModel dx="910" dy="495" grid="1" gridSize="10" guides="1" tooltips="1" connect="1" arrows="1" fold="1" page="1" pageScale="1" pageWidth="827" pageHeight="1169" math="0" shadow="0">
      <root>
        <mxCell id="0" />
        <mxCell id="1" parent="0" />
        <mxCell id="QAJxTiEdz3j_jY4yzLuw-1" value="Actor" style="shape=umlActor;verticalLabelPosition=bottom;verticalAlign=top;html=1;outlineConnect=0;" vertex="1" parent="1">
          <mxGeometry x="265" y="250" width="30" height="60" as="geometry" />
        </mxCell>
        <mxCell id="QAJxTiEdz3j_jY4yzLuw-2" value="Object" style="html=1;" vertex="1" parent="1">
          <mxGeometry x="400" y="255" width="110" height="50" as="geometry" />
        </mxCell>
      </root>
    </mxGraphModel>
  </diagram>
</mxfile>
